<?xml version="1.0" encoding="UTF-8" standalone="no"?><!DOCTYPE svg PUBLIC "-//W3C//DTD SVG 1.1//EN" "http://www.w3.org/Graphics/SVG/1.1/DTD/svg11.dtd"><svg width="100%" height="100%" viewBox="0 0 938 430" version="1.1" xmlns="http://www.w3.org/2000/svg" xmlns:xlink="http://www.w3.org/1999/xlink" xml:space="preserve" xmlns:serif="http://www.serif.com/" style="fill-rule:evenodd;clip-rule:evenodd;stroke-linejoin:round;stroke-miterlimit:2;"><g><path d="M720.75,0c8.333,1.694 14.25,3.792 17.75,6.292c10.944,7.889 14.042,17.625 9.292,29.208c-6.556,15.944 -20.028,24.042 -40.417,24.292c-0.853,-0 -1.635,-0.447 -2.042,-1.167l-5.208,-9.042c-2.702,-4.681 -8.033,-7.213 -13.333,-6.333c-14.195,2.389 -25.889,10.069 -35.084,23.042c-0.889,1.25 -0.597,2.069 0.875,2.458c17.473,4.583 28.57,8.028 33.292,10.333c43.111,21.306 63.069,55.82 59.875,103.542c-1.361,20.167 -8.278,39.792 -20.75,58.875c-19.708,30.208 -54.333,49.542 -90.208,40.208c-42.084,-10.916 -48.292,-55.291 -26.209,-87.541c3.667,-5.334 8.625,-6.667 14.875,-4c1.23,0.522 2.132,1.611 2.417,2.916c3.25,15.125 19.708,15.042 28.375,5.917c30.208,-31.625 13.25,-77.5 -27.417,-87.667c-1.361,-0.333 -2.347,0.153 -2.958,1.459c-21.708,48 -34.917,107.166 -45.75,151.666c-5.667,23.361 -11.097,40.834 -16.292,52.417c-9.166,20.444 -18.152,36.542 -26.958,48.292c-28,37.277 -66.639,58.611 -115.917,64l-26.791,-0c-51.75,-5.667 -96.792,-41.584 -93.417,-97c0.052,-0.876 0.787,-1.568 1.664,-1.568c0.099,-0 0.197,0.009 0.294,0.026c45.417,8.125 76.209,-19 84.542,-61.958c3.028,-15.667 5.264,-27.611 6.708,-35.834c0.25,-1.444 1.084,-2.319 2.5,-2.625c18.139,-3.805 33,-3.958 44.584,-0.458c8.083,2.458 13,11.375 7.25,19.583c-4.542,6.5 -9.334,10.209 -8.334,17.875c1.667,12.292 14.75,19.417 25.959,19.5c35.291,0.25 56.416,-34.5 67.958,-64.125c15.75,-40.416 31.139,-76.902 46.167,-109.458c0.694,-1.5 0.236,-2.097 -1.375,-1.792c-15.195,2.723 -28.445,8.32 -39.75,16.792c-8.556,6.361 -12.334,14.75 -11.334,25.167c0.139,1.416 0.723,2.611 1.75,3.583c2.945,2.778 6.542,4.875 10.792,6.292c3.371,1.113 5.487,4.481 5,7.958c-3.625,27.167 -35.167,45.583 -59.375,52c-29.208,7.75 -64.625,-7.542 -70.958,-39.167c-8.084,-40.458 28.083,-74.875 62.916,-91.666c38.667,-18.667 80.542,-27.611 125.625,-26.834c1.361,0.028 2.5,-0.486 3.417,-1.541c1.083,-1.195 7.028,-7.986 17.833,-20.375c20.778,-23.861 46.542,-38.375 77.292,-43.542l20.875,-0Z" style="fill:#1a5baa;fill-rule:nonzero;"/><path d="M0,250.042l0,-17.584c6.375,-33.791 35.875,-52.625 69.167,-53.708c7.472,-0.222 13.889,1.306 19.25,4.583c0.182,0.111 0.357,0.233 0.524,0.364c2.281,1.796 2.693,5.135 0.912,7.399c-0.135,0.171 -0.281,0.334 -0.436,0.487l-6.917,6.959c-0.91,0.908 -1.433,2.119 -1.458,3.375c-0.084,7.361 3.014,12.055 9.291,14.083c21.875,7.125 36,-17.958 43.834,-35.917c10.027,-22.889 19.083,-40.555 27.166,-53c0.75,-1.166 0.486,-2 -0.791,-2.5c-10.667,-4.291 -31.75,-8.541 -37.5,5.042c-0.155,0.364 -0.272,0.743 -0.351,1.13c-0.643,3.159 1.409,6.282 4.545,6.92c0.388,0.079 0.784,0.118 1.181,0.117l2.75,-0c0.009,-0 0.018,-0 0.027,-0c3.452,-0 6.292,2.84 6.292,6.291c-0,1.573 -0.59,3.09 -1.653,4.25c-9.389,10.389 -21.43,17.528 -36.125,21.417c-39.208,10.417 -64.25,-35.792 -40.541,-65.792c19.333,-24.458 51.25,-30.041 80.041,-18.791c13.334,5.222 25.695,9.472 37.084,12.75c8.791,2.541 16.666,0.5 25,1.333c6.222,0.611 8.389,4.056 6.5,10.333c-5.834,19.556 -7.07,40.098 -3.709,61.625c0.334,2.111 0.959,2.209 1.875,0.292c12.556,-25.972 29.82,-47.542 51.792,-64.708c9.5,-7.417 26,-17.209 37.083,-14.667c3.676,0.866 6.294,4.173 6.294,7.949c0,1.34 -0.33,2.66 -0.96,3.843c-16.125,30.291 -31.959,62.416 -28.459,97.291c0.417,4.056 1.611,7.264 3.584,9.625c2.944,3.445 6.722,3.875 11.333,1.292c0.868,-0.49 1.848,-0.747 2.845,-0.747c3.178,-0 5.792,2.614 5.792,5.792c-0,0.124 -0.004,0.248 -0.012,0.372c-1.139,17.472 -8.694,31.361 -22.667,41.666c-17.041,12.542 -40.291,12.334 -46.5,-11.541c-7.75,-29.917 6.209,-69 21.375,-94.25c0.177,-0.297 0.076,-0.769 -0.25,-1.167l0,-0.042c-0.333,-0.416 -0.722,-0.361 -1.166,0.167c-5.167,6.125 -11.292,12.917 -14.917,19.542c-6.528,11.833 -14.333,26.93 -23.417,45.291c-6.055,12.25 -12.597,21.25 -19.625,27c-4.805,3.945 -8.889,3.639 -12.25,-0.916c-0.443,-0.614 -0.692,-2.032 -0.666,-3.792l1.5,-83.25c0.055,-3.167 -0.542,-3.458 -1.792,-0.875c-2.722,5.694 -4.639,10.708 -5.75,15.042c-6.167,24.222 -11.347,42.93 -15.542,56.125c-16,50.375 -64.625,82 -116.708,65.916c-19.528,-6.055 -31.819,-20.194 -36.875,-42.416Z" style="fill:#1a5baa;fill-rule:nonzero;"/><path d="M338.917,271.833c-10.861,7.278 -21.084,9.806 -30.667,7.584c-11.75,-2.723 -16.694,-10.264 -14.833,-22.625c1.666,-10.778 4.152,-22.514 7.458,-35.209c1.694,-6.555 0.903,-11.305 -2.375,-14.25c-1.333,-1.194 -1.306,-2.347 0.083,-3.458c10.75,-8.5 20.986,-12.222 30.709,-11.167c9.111,1 12.652,6.125 10.625,15.375c-3.445,15.889 -5.709,26.834 -6.792,32.834c-0.806,4.527 1.069,7.069 5.625,7.625c0.722,0.083 1.361,0.055 1.917,-0.084c3.889,-1.111 6.264,-2.916 7.125,-5.416c2.75,-7.917 5.083,-16.514 7,-25.792c0.861,-4.25 -0.056,-7.75 -2.75,-10.5c-1.139,-1.167 -1.084,-2.25 0.166,-3.25c12.834,-10.417 45.542,-22.333 39.042,8.458c-8.306,39.111 -13.056,60.778 -14.25,65c-7.806,27.973 -25.792,44.459 -53.958,49.459c-11.792,2.083 -30.25,-2.792 -36.084,-14.709c-5.611,-11.416 -2.583,-21.486 9.084,-30.208c0.473,-0.351 1.047,-0.54 1.637,-0.54c0.998,-0 1.92,0.543 2.404,1.415c6.695,12.417 16.264,14.694 28.709,6.833c6.277,-3.944 10.25,-9.319 11.916,-16.125c0.5,-1.972 -0.097,-2.389 -1.791,-1.25Z" style="fill:#1a5baa;fill-rule:nonzero;"/><path d="M654.5,378.583c1.833,0.195 4.583,-0.25 8.25,-1.333c1.219,-0.358 2.537,0.247 3.083,1.417c0.389,0.861 0.445,1.916 0.167,3.166c-2.167,9.667 -19.833,15.584 -28.417,15.959c-8.5,0.333 -14.041,-2.514 -16.625,-8.542c-1.333,-3.111 -1.18,-8.403 0.459,-15.875c5.027,-22.944 10,-45.875 14.916,-68.792c0.667,-2.916 0.625,-5.125 -1.375,-7.083c-1.166,-1.139 -1.125,-2.25 0.125,-3.333c8.139,-7.056 16.834,-9.556 26.084,-7.5c4.478,1.008 7.336,5.52 6.333,10l-17,76.333c-0.018,0.08 -0.033,0.161 -0.046,0.242c-0.41,2.504 1.294,4.899 3.775,5.305c0.09,0.015 0.18,0.027 0.271,0.036Z" style="fill:#1a5baa;fill-rule:nonzero;"/><path d="M702.417,378.5c1.833,0.194 4.583,-0.25 8.25,-1.333c1.219,-0.358 2.536,0.247 3.083,1.416c0.389,0.861 0.444,1.931 0.167,3.209c-2.167,9.666 -19.875,15.583 -28.459,15.958c-8.527,0.333 -14.083,-2.514 -16.666,-8.542c-1.334,-3.111 -1.181,-8.416 0.458,-15.916c5.056,-23 10.042,-45.973 14.958,-68.917c0.667,-2.917 0.625,-5.125 -1.375,-7.125c-1.166,-1.139 -1.125,-2.25 0.125,-3.333c8.167,-7.056 16.875,-9.556 26.125,-7.5c3.827,0.842 6.576,4.261 6.576,8.179c-0,0.612 -0.068,1.223 -0.201,1.821l-17.041,76.5c-0.071,0.324 -0.107,0.655 -0.107,0.987c0,2.342 1.779,4.333 4.107,4.596Z" style="fill:#1a5baa;fill-rule:nonzero;"/><path d="M594.592,295.853c8.723,-3.454 18.005,-0.703 20.714,6.139c2.709,6.842 -2.174,15.201 -10.898,18.655c-8.723,3.454 -18.005,0.703 -20.714,-6.139c-2.709,-6.842 2.174,-15.201 10.898,-18.655Z" style="fill:#1a5baa;"/><path d="M884.833,352.708c-0.472,0 -0.944,0.028 -1.416,0.084c-1.056,0.139 -2.084,0.027 -3.084,-0.334c-10.041,-3.666 -7.958,-18 0.667,-22.458c17.292,-8.917 26.208,6.125 23.458,22.125c-2.833,16.667 -10.611,29.319 -23.333,37.958c-15,10.167 -28.667,10.195 -41,0.084c-1.056,-0.861 -2.153,-0.917 -3.292,-0.167c-11.222,7.222 -21.486,9.264 -30.791,6.125c-11.695,-3.944 -16.459,-11.667 -14.292,-23.167c0.917,-4.722 2.861,-14.041 5.833,-27.958c0.361,-1.722 -0.069,-3.194 -1.291,-4.417l-1.292,-1.291c-1.194,-1.167 -1.153,-2.292 0.125,-3.375c6.444,-5.473 13.278,-8.375 20.5,-8.709c6.806,-0.305 10.861,1.889 12.167,6.584c0.583,2.166 0.208,5.972 -1.125,11.416c-2.917,11.861 -4.861,20.945 -5.834,27.25c-0.277,1.667 0.403,2.681 2.042,3.042l4.25,0.958c0.428,0.096 0.865,0.145 1.304,0.145c2.79,-0 5.225,-1.96 5.821,-4.686l6.125,-27.417c0.361,-1.611 -0.042,-3 -1.208,-4.167l-1.584,-1.541c-1,-1 -0.944,-1.945 0.167,-2.834c9,-7.194 17.847,-9.93 26.542,-8.208c3.954,0.795 6.825,4.3 6.825,8.333c-0,0.617 -0.067,1.232 -0.2,1.834l-7,31.416c-0.001,0.005 -0.002,0.01 -0.003,0.014c-0.729,3.233 1.35,6.498 4.606,7.231c0.007,0.002 0.014,0.004 0.022,0.005c10.125,2.209 16.583,-12.916 18.375,-21.25c0.361,-1.722 -0.334,-2.597 -2.084,-2.625Z" style="fill:#1a5baa;fill-rule:nonzero;"/><path d="M607.625,378.667l6.25,-1.75c1.428,-0.389 2.924,0.405 3.375,1.791c0.278,0.778 0.361,1.681 0.25,2.709c-1.083,10.208 -20.417,16.083 -28.875,16.291c-15.208,0.334 -18.583,-9.666 -15.708,-22.916c3.805,-17.556 5.916,-27.528 6.333,-29.917c0.278,-1.5 -0.125,-2.792 -1.208,-3.875l-1.125,-1.083c-1.195,-1.195 -1.139,-2.32 0.166,-3.375c6.625,-5.375 22.709,-13.125 29.834,-5.875c2.5,2.555 3.222,6.055 2.166,10.5c-0.583,2.361 -2.819,12.236 -6.708,29.625c-0.105,0.472 -0.17,0.958 -0.193,1.448c-0.164,3.47 1.806,6.425 4.363,6.546c0.361,0.017 0.723,-0.023 1.08,-0.119Z" style="fill:#1a5baa;fill-rule:nonzero;"/><path d="M780.559,338.111c11.713,13.714 8.064,36.346 -8.083,50.137c-0,0 -0.001,0 -0.001,0c-16.147,13.791 -39.072,13.855 -50.784,0.141c-11.713,-13.714 -8.064,-36.346 8.083,-50.137c0,-0 0.001,-0 0.001,-0c16.147,-13.791 39.072,-13.855 50.784,-0.141Zm-30.723,26.397c3.614,1.489 8.279,-1.389 10.335,-6.376c-0,-0 -0,-0 -0,-0c2.055,-4.988 0.773,-10.317 -2.841,-11.807c-3.613,-1.489 -8.279,1.389 -10.334,6.377c-0,-0 -0,-0 -0,-0c-2.056,4.987 -0.773,10.317 2.84,11.806Z" style="fill:#1a5baa;fill-rule:nonzero;"/><g transform="matrix(37.1487,0,0,37.1487,937.337,356.965)"></g><text x="909.958px" y="356.965px" style="font-family:'ArialMT';font-weight:500;font-size:37.149px;fill:#1a5baa;">®</text></g></svg>